# xmcd
#
# Track frame offsets: 
#        150
#        22678
#        44399
#        63454
#        85868
#        106923
#        138188
#        157993
#        178370
#        195602
#        213595
#        234354
#        253113
#        269501
#        286020
#        304990
#
# Disc length: 4325 seconds
#
# Revision: 2
# Processed by: cddbd v1.5.2PL0 Copyright (c) Steve Scherf et al.
# Submitted via: ExactAudioCopy v0.95b4
#
DISCID=dd10e310
DTITLE=Various Artist - Kinetik Festival Vol. 3 CD3
DYEAR=2010
DGENRE=Industrial
TTITLE0=Covenant - XRDS
TTITLE1=Rotersand - By The Waters (Soman Sheffield Remix)
TTITLE2=Melotron - Dein Meister (Ravenous Remix)
TTITLE3=Destroid - Silent World (Kinetik Edit)
TTITLE4=Frozen Plasma - Tanz die Revolution (Syrian Remix)
TTITLE5=Lights Of Euphoria - True Life (VNV Nation Remix)
TTITLE6=Faderhead - 69 Freaks Per Minute
TTITLE7=Komor Kommando - Triggerfinger
TTITLE8=Run Level Zero - Deny Me
TTITLE9=Unter Null - Godless (Neikka RPM Remix)
TTITLE10=Cesium 137 - Unwanted
TTITLE11=Fractured - For What?
TTITLE12=Memmaker - Ascent (Fractured Remix)
TTITLE13=FabrikC - Mensch
TTITLE14=Torrent Vaccine Vs. Synnack - Adroit Deflector
TTITLE15=Detroit Diesel - Terre Humaine
EXTD=
EXTT0=
EXTT1=
EXTT2=
EXTT3=
EXTT4=
EXTT5=
EXTT6=
EXTT7=
EXTT8=
EXTT9=
EXTT10=
EXTT11=
EXTT12=
EXTT13=
EXTT14=
EXTT15=
PLAYORDER=
